<?xml version="1.0" standalone="no"?>
<!DOCTYPE svg PUBLIC "-//W3C//DTD SVG 20010904//EN"
 "http://www.w3.org/TR/2001/REC-SVG-20010904/DTD/svg10.dtd">
<svg version="1.0" xmlns="http://www.w3.org/2000/svg"
 width="500" height="400" viewBox="0 0 600 300">

<g transform="translate(0.000000,418.000000) scale(0.100000,-0.100000)"
fill="#000000" stroke="none">
<path fill="#dc2626" d="M3010 4118 c0 -114 -54 -249 -148 -373 -26 -33 -69 -91 -98 -128 -60
-80 -129 -212 -143 -277 -26 -115 -6 -229 58 -327 43 -65 100 -123 87 -88 -15
39 -19 144 -7 192 7 26 40 93 73 148 96 158 112 187 124 235 9 37 16 46 37 48
24 3 27 -3 77 -155 29 -87 55 -161 59 -165 3 -4 22 15 41 42 19 27 40 50 45
50 17 0 73 -100 86 -153 20 -83 -1 -215 -56 -341 -7 -17 -2 -15 43 9 58 31
143 113 179 171 82 136 93 382 22 531 -25 53 -109 153 -129 153 -3 0 -12 -24
-19 -52 -22 -85 -28 -85 -35 4 -15 191 -69 319 -181 433 -39 40 -81 77 -93 84
-21 11 -22 10 -22 -41z"/>
<path d="M1832 3634 l-22 -15 0 -390 c0 -340 2 -394 16 -422 9 -18 141 -157
292 -309 152 -152 285 -294 296 -315 15 -29 21 -66 26 -158 7 -131 22 -175 77
-227 62 -59 188 -91 271 -68 52 13 124 77 155 135 21 38 22 52 22 315 0 203
-4 287 -14 320 -11 39 -52 84 -299 333 -317 318 -311 314 -377 256 -26 -23
-35 -39 -35 -63 0 -32 0 -32 182 -223 89 -94 96 -117 49 -164 -53 -53 -68 -46
-234 119 -82 81 -153 157 -158 170 -5 12 -29 155 -54 319 -26 163 -52 308 -60
323 -18 35 -71 80 -94 80 -9 0 -27 -7 -39 -16z"/>
<path d="M4241 3636 c-25 -8 -41 -24 -62 -61 -24 -43 -34 -91 -74 -350 -51
-326 -43 -302 -130 -390 -143 -145 -225 -215 -250 -215 -66 0 -109 54 -83 105
7 13 63 75 124 137 147 150 154 163 107 218 -36 43 -67 54 -101 36 -15 -8
-149 -137 -298 -288 -243 -245 -273 -278 -287 -323 -22 -70 -30 -244 -21 -446
7 -170 7 -171 38 -217 60 -89 183 -137 291 -113 71 16 143 79 175 153 19 43
24 77 28 178 l4 125 298 300 c163 165 303 311 310 325 19 36 28 747 10 791
-17 40 -38 49 -79 35z"/>
</g>
</svg>
